<svg width="80" height="80" viewBox="0 0 80 80" xmlns="http://www.w3.org/2000/svg">
  <defs>
    <linearGradient id="logoGradient" x1="0%" y1="0%" x2="100%" y2="100%">
      <stop offset="0%" style="stop-color:#FF2BAC;stop-opacity:1" />
      <stop offset="60%" style="stop-color:#FF6BCE;stop-opacity:1" />
      <stop offset="100%" style="stop-color:#FF9ED6;stop-opacity:1" />
    </linearGradient>
    <filter id="shadow" x="-20%" y="-20%" width="140%" height="140%">
      <feDropShadow dx="0" dy="4" stdDeviation="8" flood-color="rgba(255, 43, 172, 0.3)"/>
    </filter>
  </defs>
  
  <!-- Background Circle -->
  <circle cx="40" cy="40" r="36" fill="url(#logoGradient)" filter="url(#shadow)"/>
  
  <!-- Letter B -->
  <path d="M25 20 L25 60 L35 60 Q45 60 50 55 Q55 50 55 45 Q55 40 50 37.5 Q55 35 55 30 Q55 25 50 20 Q45 15 35 15 L25 20 Z
           M30 25 L35 25 Q40 25 42.5 27.5 Q45 30 45 32.5 Q45 35 42.5 37.5 Q40 40 35 40 L30 40 L30 25 Z
           M30 45 L35 45 Q42.5 45 45 47.5 Q47.5 50 47.5 52.5 Q47.5 55 45 57.5 Q42.5 60 35 60 L30 60 L30 45 Z" 
        fill="white" 
        font-family="Playfair Display, serif" 
        font-weight="700"/>
  
  <!-- Letter F (stylized) -->
  <path d="M45 20 L45 60 L50 60 L50 42.5 L62 42.5 L62 37.5 L50 37.5 L50 25 L65 25 L65 20 L45 20 Z" 
        fill="white" 
        font-family="Playfair Display, serif" 
        font-weight="700"/>
  
  <!-- Decorative elements -->
  <circle cx="32" cy="25" r="1.5" fill="rgba(255, 255, 255, 0.8)"/>
  <circle cx="58" cy="35" r="1" fill="rgba(255, 255, 255, 0.6)"/>
  <circle cx="35" cy="55" r="1.2" fill="rgba(255, 255, 255, 0.7)"/>
</svg>